<?xml version="1.0" encoding="UTF-8"?>
<svg width="31px" height="31px" viewBox="0 0 31 31" version="1.1" xmlns="http://www.w3.org/2000/svg" xmlns:xlink="http://www.w3.org/1999/xlink">
    <!-- Generator: Sketch 49.3 (51167) - http://www.bohemiancoding.com/sketch -->
    <title>Group 24</title>
    <desc>Created with Sketch.</desc>
    <defs></defs>
    <g id="Page-1" stroke="none" stroke-width="1" fill="none" fill-rule="evenodd">
        <g id="Desktop-HD" transform="translate(-813.000000, -3165.000000)">
            <g id="Group-24" transform="translate(828.500000, 3180.500000) rotate(-8.000000) translate(-828.500000, -3180.500000) translate(813.000000, 3165.000000)">
                <circle id="Oval-3" fill="#F10044" cx="15.5" cy="15.5" r="15.5"></circle>
                <g id="Group-15" transform="translate(15.000000, 15.500000) rotate(23.000000) translate(-15.000000, -15.500000) translate(4.000000, 9.000000)" fill="#0F0238" fill-rule="nonzero">
                    <path d="M1.64476414,5.67410109 C1.1641303,5.98691057 0.513383211,5.86210436 0.191279836,5.39533861 C-0.13082354,4.92857286 -0.00230920676,4.29660227 0.478324633,3.98379279 C6.67465026,-0.0489432794 13.610115,-0.924105238 21.1919532,1.35600612 C21.7446438,1.52221859 22.0539428,2.0920769 21.882792,2.62882027 C21.7116412,3.16556365 21.1248518,3.4659383 20.5721613,3.29972583 C13.5833428,1.19795526 7.3051323,1.99018061 1.64476414,5.67410109 Z" id="Path-3"></path>
                    <path d="M4.54342029,9.23148278 C4.05172542,9.52763562 3.40591566,9.38061853 3.10096381,8.90311091 C2.79601195,8.42560329 2.94739708,7.79842756 3.43909194,7.50227471 C8.13405866,4.67444824 13.422114,3.92529314 19.2397241,5.24999133 C19.803031,5.37825907 20.1526106,5.92571502 20.0205319,6.47276842 C19.8884532,7.01982182 19.3247317,7.35931468 18.7614248,7.23104695 C13.4725602,6.02674668 8.75440328,6.69516465 4.54342029,9.23148278 Z" id="Path-3"></path>
                    <path d="M7.61717532,12.7153457 C7.12245208,13.0067031 6.47819027,12.8534145 6.1781763,12.3729658 C5.87816232,11.8925172 6.03600537,11.2668448 6.53072861,10.9754873 C9.70706465,9.10484719 13.3466226,8.59126565 17.3937326,9.4245765 C17.9597349,9.54111788 18.3212879,10.0811897 18.201284,10.6308606 C18.08128,11.1805316 17.5251621,11.5316524 16.9591599,11.4151111 C13.4171004,10.6857915 10.3216622,11.1225918 7.61717532,12.7153457 Z" id="Path-3"></path>
                </g>
            </g>
        </g>
    </g>
</svg>